<?xml version="1.0" encoding="utf-8"?>
<!-- Generator: Adobe Illustrator 25.2.0, SVG Export Plug-In . SVG Version: 6.00 Build 0)  -->
<svg version="1.1" id="Layer_1" xmlns="http://www.w3.org/2000/svg" xmlns:xlink="http://www.w3.org/1999/xlink" x="0px" y="0px"
	 viewBox="0 0 1135.28 325.58" style="enable-background:new 0 0 1135.28 325.58;" xml:space="preserve">
<style type="text/css">
	.st0{fill:#0F212F;}
	.st1{fill:#FF8000;}
</style>
<g>
	<g>
		<path class="st0" d="M714.63,154.98c-8.54,0-15.62,2.08-21.03,6.25c-5.21,4.16-8.12,10.62-8.54,19.57v53.73h-27.07v-50.72
			c0-7.52,1.32-14.99,3.95-22.03c0.02-0.05,5.64-10.47,9.98-14.85c9.43-9.53,20.74-15.34,33.84-18.01c3.08-0.63,6.09-1,8.87-1
			V154.98z"/>
		<path class="st0" d="M269.01,88.76c26.86,0,44.15,17.08,44.15,42.27c0,12.5-3.96,22.49-12.08,30.2
			c-7.91,7.7-18.53,11.45-32.07,11.45h-29.99v61.85h-9.37V88.76H269.01z M239.02,97.71v66.01h29.99c20.82,0,34.99-12.91,34.99-32.69
			c0-19.99-14.16-33.32-34.99-33.32H239.02z"/>
		<path class="st0" d="M374.37,137.9c-8.54,0-15.83,3.12-21.45,9.16c-6.87,7.29-10.41,17.28-10.41,29.99v57.48h-8.95V182.5
			c0-6.74,0.85-15.44,2.51-21.93c1.12-4.37,1.6-5.65,3.45-9.79l1-2c5.22-10.29,16.99-19.41,33.86-19.41V137.9z"/>
		<path class="st0" d="M468.5,143.53c9.37,10.2,14.16,23.32,14.16,38.94c0,15.62-4.79,28.74-14.16,38.94
			c-9.37,10.2-21.45,15.41-36.65,15.41s-27.7-5.21-37.07-15.41c-9.37-10.2-14.16-23.32-14.16-38.94c0-15.62,4.79-28.74,14.16-38.94
			c9.37-10.2,21.87-15.41,37.07-15.41S459.13,133.32,468.5,143.53z M401.23,149.56c-7.7,8.54-11.45,19.57-11.45,32.9
			c0,13.12,3.75,24.16,11.45,32.9c7.7,8.54,17.91,12.91,30.61,12.91c12.49,0,22.49-4.37,30.2-12.91
			c7.71-8.75,11.45-19.78,11.45-32.9c0-13.33-3.75-24.37-11.45-32.9c-7.7-8.54-17.7-12.91-30.2-12.91
			C419.14,136.65,408.94,141.03,401.23,149.56z"/>
		<path class="st0" d="M518.06,103.33l-0.21,27.07h29.57v8.54h-29.57l-0.42,69.76c0,13.12,3.33,18.74,16.03,18.74
			c4.79,0,9.58-0.62,13.95-2.08v8.33c-3.33,1.46-7.91,2.29-13.95,2.29c-16.87,0-25.2-8.33-24.99-27.28l0.42-69.76h-21.87v-8.54
			h21.87l0.21-27.07H518.06z"/>
		<path class="st0" d="M631.76,164.77v69.76h-9.16V218.7c-6.04,10.2-18.53,18.12-34.36,18.12c-17.49,0-28.53-11.04-28.53-26.66
			c0-15.2,9.16-24.99,27.49-29.15l35.4-7.7v-8.54c0-18.74-8.33-28.11-24.99-28.11c-15.62,0-25.82,8.75-25.82,25.2h-9.37
			c0-19.37,13.95-33.74,34.98-33.74C619.89,128.12,631.76,141.44,631.76,164.77z M622.59,181.63l-33.74,7.7
			c-12.7,3.12-19.78,8.96-19.78,20.83c0,11.04,6.87,18.12,19.16,18.12c10.83,0,19.78-3.96,26.66-12.08
			c5.21-6.46,7.71-13.74,7.71-21.66V181.63z"/>
		<path class="st0" d="M815.63,142.07c10.62,10.2,15.83,23.32,15.83,39.57s-5.21,29.57-15.83,39.77
			c-10.41,10.2-23.74,15.41-39.77,15.41s-29.15-5.21-39.57-15.41c-10.41-10.2-15.62-23.53-15.62-39.77s5.21-29.36,15.62-39.57
			c10.41-10.2,23.53-15.41,39.57-15.41S805.22,131.86,815.63,142.07z M756.28,159.98c-5.21,5.62-7.71,12.91-7.71,21.66
			c0,8.75,2.5,16.04,7.71,21.87c5.21,5.62,11.66,8.54,19.78,8.54c16.03,0,27.28-12.91,27.28-30.4c0-17.7-10.83-30.4-27.28-30.4
			C767.94,151.23,761.49,154.15,756.28,159.98z"/>
		<path class="st0" d="M938.07,142.07c10.62,10.2,15.83,23.32,15.83,39.57s-5.21,29.57-15.83,39.77
			c-10.41,10.2-23.74,15.41-39.77,15.41c-16.04,0-29.15-5.21-39.57-15.41c-10.41-10.2-15.62-23.53-15.62-39.77
			s5.21-29.36,15.62-39.57c10.41-10.2,23.53-15.41,39.57-15.41C914.33,126.66,927.66,131.86,938.07,142.07z M878.72,159.98
			c-5.21,5.62-7.71,12.91-7.71,21.66c0,8.75,2.5,16.04,7.71,21.87c5.21,5.62,11.66,8.54,19.78,8.54c16.03,0,27.28-12.91,27.28-30.4
			c0-17.7-10.83-30.4-27.28-30.4C890.39,151.23,883.93,154.15,878.72,159.98z"/>
		<path class="st0" d="M1118.62,166.02v68.51h-27.07v-62.68c0-12.7-5-18.95-14.79-18.95c-10.62,0-18.33,8.54-18.53,24.57v57.06
			h-27.07v-62.68c0-12.7-5-18.95-14.79-18.95c-10.83,0-18.53,8.95-18.53,25.82v55.81h-26.86V128.95h23.11l2.08,13.74
			c5.62-10.62,14.99-16.03,28.11-16.03c14.79,0,24.99,6.25,30.2,18.53c5.21-10.83,16.24-18.53,30.4-18.53
			C1106.75,126.66,1118.62,141.65,1118.62,166.02z"/>
	</g>
	<g>
		<path class="st1" d="M92.71,37.02c25.16,0,45.63,20.47,45.63,45.63s-20.47,45.63-45.63,45.63S47.08,107.8,47.08,82.64
			S67.55,37.02,92.71,37.02 M92.71,6.6c-42,0-76.04,34.05-76.04,76.04s34.05,76.04,76.04,76.04s76.04-34.05,76.04-76.04
			S134.71,6.6,92.71,6.6L92.71,6.6z"/>
		<path class="st1" d="M113.01,210.83c2.74-1.42,5.53-2.76,8.39-3.97c14.98-6.34,30.91-9.55,47.35-9.55v-30.42
			c-25.64,0-49.77,6.37-70.96,17.57L113.01,210.83z"/>
		<path class="st1" d="M66.36,253.27c4.69-7.3,10.14-14.1,16.36-20.33c6.22-6.22,13.03-11.67,20.33-16.36l-15.22-26.35
			c-19.3,12.16-35.67,28.53-47.83,47.83L66.36,253.27z"/>
		<path class="st1" d="M34.24,248.02c-11.2,21.19-17.57,45.32-17.57,70.95h30.42c0-16.44,3.21-32.37,9.55-47.35
			c1.21-2.86,2.55-5.64,3.97-8.39L34.24,248.02z"/>
	</g>
</g>
</svg>
